<svg xmlns="http://www.w3.org/2000/svg" viewBox="0 0 175.79 197.84"><defs><style>.cls-1{fill:#fff;}</style></defs><g id="Layer_2" data-name="Layer 2"><g id="Layer_1-2" data-name="Layer 1"><path class="cls-1" d="M57.28,84.59v28.66a5.79,5.79,0,0,0,2.9,5L85,132.6a5.81,5.81,0,0,0,5.79,0l24.82-14.33a5.81,5.81,0,0,0,2.9-5V84.59a5.81,5.81,0,0,0-2.9-5L90.79,65.24a5.81,5.81,0,0,0-5.79,0L60.18,79.57A5.79,5.79,0,0,0,57.28,84.59Z"/><path class="cls-1" d="M167.47,43.37,96.21,2.23a16.63,16.63,0,0,0-16.63,0L57.28,15.1V48.17l25-14.44a11.22,11.22,0,0,1,11.21,0l48,27.74a11.22,11.22,0,0,1,5.61,9.71v55.48a11.23,11.23,0,0,1-5.61,9.71l-48,27.73a11.17,11.17,0,0,1-11.21,0l-48-27.73a11.23,11.23,0,0,1-5.61-9.71v-95L8.32,43.37A16.63,16.63,0,0,0,0,57.78v82.28a16.65,16.65,0,0,0,8.32,14.41l71.26,41.14a16.63,16.63,0,0,0,16.63,0l71.26-41.14a16.65,16.65,0,0,0,8.32-14.41V57.78A16.63,16.63,0,0,0,167.47,43.37Z"/></g></g></svg>